<svg width="40" height="40" viewBox="0 0 40 40" fill="none" xmlns="http://www.w3.org/2000/svg">
  <defs>
    <!-- Enhanced Gradients -->
    <linearGradient id="primaryGradient" x1="0%" y1="0%" x2="100%" y2="100%">
      <stop offset="0%" style="stop-color:#1890ff;stop-opacity:1" />
      <stop offset="50%" style="stop-color:#40a9ff;stop-opacity:1" />
      <stop offset="100%" style="stop-color:#722ed1;stop-opacity:1" />
    </linearGradient>

    <linearGradient id="cloudGradient" x1="0%" y1="0%" x2="100%" y2="100%">
      <stop offset="0%" style="stop-color:#52c41a;stop-opacity:1" />
      <stop offset="50%" style="stop-color:#73d13d;stop-opacity:1" />
      <stop offset="100%" style="stop-color:#1890ff;stop-opacity:1" />
    </linearGradient>

    <radialGradient id="backgroundGradient" cx="50%" cy="50%" r="50%">
      <stop offset="0%" style="stop-color:#1890ff;stop-opacity:0.2" />
      <stop offset="100%" style="stop-color:#722ed1;stop-opacity:0.1" />
    </radialGradient>

    <!-- Glow Effects -->
    <filter id="glow" x="-50%" y="-50%" width="200%" height="200%">
      <feGaussianBlur stdDeviation="2" result="coloredBlur" />
      <feMerge>
        <feMergeNode in="coloredBlur" />
        <feMergeNode in="SourceGraphic" />
      </feMerge>
    </filter>

    <filter id="strongGlow" x="-50%" y="-50%" width="200%" height="200%">
      <feGaussianBlur stdDeviation="3" result="coloredBlur" />
      <feMerge>
        <feMergeNode in="coloredBlur" />
        <feMergeNode in="SourceGraphic" />
      </feMerge>
    </filter>
  </defs>

  <!-- Animated Background -->
  <circle cx="20" cy="20" r="19" fill="url(#backgroundGradient)">
    <animate attributeName="r" values="19;20;19" dur="3s" repeatCount="indefinite" />
  </circle>

  <!-- Cloud Background -->
  <g transform="translate(8, 6)">
    <path
      d="M6 8c0-3.3 2.7-6 6-6 1.7 0 3.2.7 4.2 1.9C17.3 2.7 18.6 2 20 2c4.2 0 7.5 3.3 7.5 7.5 0 .4-.1.9-.1 1.3 1.8.9 3.1 2.7 3.1 4.7 0 3.3-2.7 6-6 6H9c-3.3 0-6-2.7-6-6 0-2.5 1.6-4.7 3.9-5.5C6.3 9.4 6 8.7 6 8z"
      fill="url(#cloudGradient)"
      opacity="0.15"
      filter="url(#glow)">
      <animateTransform
        attributeName="transform"
        attributeType="XML"
        type="translate"
        values="0,0; 1,0; 0,0"
        dur="4s"
        repeatCount="indefinite" />
    </path>
  </g>

  <!-- Main Shopping Cart Icon -->
  <g transform="translate(12, 14)">
    <!-- Cart Body with 3D effect -->
    <path d="M0 2h3l.6 3h11.4l-1.5 7H4.5l-.6-3H2.4L0 2z"
      fill="url(#primaryGradient)"
      stroke="#ffffff40"
      stroke-width="0.8"
      filter="url(#strongGlow)">
      <animate attributeName="opacity" values="0.9;1;0.9" dur="2s" repeatCount="indefinite" />
    </path>

    <!-- Cart Handle -->
    <path d="M0 2h3"
      stroke="url(#primaryGradient)"
      stroke-width="2"
      stroke-linecap="round"
      filter="url(#glow)" />

    <!-- Cart Wheels with rotation -->
    <g>
      <circle cx="5" cy="14" r="1.5" fill="url(#primaryGradient)" filter="url(#glow)">
        <animateTransform
          attributeName="transform"
          attributeType="XML"
          type="rotate"
          values="0 5 14; 360 5 14"
          dur="8s"
          repeatCount="indefinite" />
      </circle>
      <circle cx="13" cy="14" r="1.5" fill="url(#primaryGradient)" filter="url(#glow)">
        <animateTransform
          attributeName="transform"
          attributeType="XML"
          type="rotate"
          values="0 13 14; 360 13 14"
          dur="8s"
          repeatCount="indefinite" />
      </circle>
    </g>

    <!-- Floating Items in Cart -->
    <g opacity="0.9">
      <rect x="4" y="5" width="2" height="2" fill="#ffffff" rx="0.3">
        <animate attributeName="y" values="5;4;5" dur="2s" repeatCount="indefinite" />
      </rect>
      <rect x="7" y="5" width="2" height="2" fill="#ffffff" opacity="0.8" rx="0.3">
        <animate attributeName="y" values="5;4.5;5" dur="2.5s" repeatCount="indefinite" />
      </rect>
      <rect x="10" y="5" width="2" height="2" fill="#ffffff" rx="0.3">
        <animate attributeName="y" values="5;4.2;5" dur="3s" repeatCount="indefinite" />
      </rect>
    </g>
  </g>

  <!-- Dynamic Sparkles -->
  <g opacity="0.8">
    <circle cx="8" cy="8" r="1" fill="#ffd700" filter="url(#glow)">
      <animate attributeName="opacity" values="0.8;1;0.8" dur="1.5s" repeatCount="indefinite" />
      <animate attributeName="r" values="1;1.2;1" dur="1.5s" repeatCount="indefinite" />
    </circle>
    <circle cx="32" cy="10" r="0.8" fill="#ffd700" filter="url(#glow)">
      <animate attributeName="opacity" values="0.6;1;0.6" dur="2s" repeatCount="indefinite" />
    </circle>
    <circle cx="6" cy="32" r="0.6" fill="#ffd700" filter="url(#glow)">
      <animate attributeName="opacity" values="0.7;1;0.7" dur="2.3s" repeatCount="indefinite" />
    </circle>
    <circle cx="34" cy="30" r="0.9" fill="#ffd700" filter="url(#glow)">
      <animate attributeName="opacity" values="0.5;1;0.5" dur="1.8s" repeatCount="indefinite" />
    </circle>
  </g>

  <!-- Outer Pulse Ring -->
  <circle cx="20" cy="20" r="17" fill="none" stroke="url(#primaryGradient)" stroke-width="1.5"
    opacity="0.4">
    <animate attributeName="r" values="17;19;17" dur="3s" repeatCount="indefinite" />
    <animate attributeName="opacity" values="0.4;0.1;0.4" dur="3s" repeatCount="indefinite" />
    <animate attributeName="stroke-width" values="1.5;0.5;1.5" dur="3s" repeatCount="indefinite" />
  </circle>

  <!-- Inner Pulse Ring -->
  <circle cx="20" cy="20" r="15" fill="none" stroke="url(#cloudGradient)" stroke-width="1"
    opacity="0.3">
    <animate attributeName="r" values="15;16;15" dur="2s" repeatCount="indefinite" />
    <animate attributeName="opacity" values="0.3;0.1;0.3" dur="2s" repeatCount="indefinite" />
  </circle>
</svg>