<svg width="40" height="40" viewBox="0 0 40 40" fill="none" xmlns="http://www.w3.org/2000/svg">
  <defs>
    <linearGradient id="logoGradient" x1="0%" y1="0%" x2="100%" y2="100%">
      <stop offset="0%" style="stop-color:#1890ff;stop-opacity:1" />
      <stop offset="100%" style="stop-color:#722ed1;stop-opacity:1" />
    </linearGradient>
    <linearGradient id="cloudGradient" x1="0%" y1="0%" x2="100%" y2="100%">
      <stop offset="0%" style="stop-color:#52c41a;stop-opacity:1" />
      <stop offset="100%" style="stop-color:#1890ff;stop-opacity:1" />
    </linearGradient>
    <filter id="glow">
      <feGaussianBlur stdDeviation="2" result="coloredBlur" />
      <feMerge>
        <feMergeNode in="coloredBlur" />
        <feMergeNode in="SourceGraphic" />
      </feMerge>
    </filter>
  </defs>

  <!-- Background Circle -->
  <circle cx="20" cy="20" r="18" fill="url(#logoGradient)" opacity="0.1" />

  <!-- Cloud Shape -->
  <path
    d="M12 16c0-2.2 1.8-4 4-4 1.1 0 2.1.5 2.8 1.3C19.5 12.5 20.7 12 22 12c2.8 0 5 2.2 5 5 0 .3 0 .6-.1.9 1.2.6 2.1 1.8 2.1 3.1 0 2.2-1.8 4-4 4H14c-2.2 0-4-1.8-4-4 0-1.7 1.1-3.1 2.6-3.7C12.2 16.9 12 16.5 12 16z"
    fill="url(#cloudGradient)" opacity="0.8" filter="url(#glow)" />

  <!-- Shopping Cart -->
  <g transform="translate(14, 18)">
    <!-- Cart Body -->
    <path d="M0 0h2l.4 2h8.6l-1 5H3l-.4-2H1.6L0 0z" fill="url(#logoGradient)" stroke="white"
      stroke-width="0.5" />

    <!-- Cart Handle -->
    <path d="M0 0h2" stroke="url(#logoGradient)" stroke-width="1.5" stroke-linecap="round" />

    <!-- Cart Wheels -->
    <circle cx="4" cy="8" r="1" fill="url(#logoGradient)" />
    <circle cx="10" cy="8" r="1" fill="url(#logoGradient)" />

    <!-- Items in Cart -->
    <rect x="3" y="3" width="1.5" height="1.5" fill="white" opacity="0.8" rx="0.2" />
    <rect x="5" y="3" width="1.5" height="1.5" fill="white" opacity="0.6" rx="0.2" />
    <rect x="7" y="3" width="1.5" height="1.5" fill="white" opacity="0.8" rx="0.2" />
  </g>

  <!-- Sparkle Effects -->
  <g opacity="0.7">
    <circle cx="8" cy="8" r="0.8" fill="#ffd700" />
    <circle cx="32" cy="12" r="0.6" fill="#ffd700" />
    <circle cx="6" cy="30" r="0.5" fill="#ffd700" />
    <circle cx="34" cy="28" r="0.7" fill="#ffd700" />
  </g>

  <!-- Animated Pulse Ring -->
  <circle cx="20" cy="20" r="16" fill="none" stroke="url(#logoGradient)" stroke-width="1"
    opacity="0.3">
    <animate attributeName="r" values="16;18;16" dur="2s" repeatCount="indefinite" />
    <animate attributeName="opacity" values="0.3;0.1;0.3" dur="2s" repeatCount="indefinite" />
  </circle>
</svg>