<svg width="48" height="48" viewBox="0 0 48 48" fill="none" xmlns="http://www.w3.org/2000/svg">
  <defs>
    <!-- Theme-Adaptive Gradients for Admin Panel -->
    <linearGradient id="primaryGradient" x1="0%" y1="0%" x2="100%" y2="100%">
      <stop offset="0%" style="stop-color:var(--logo-primary, #1890ff);stop-opacity:1" />
      <stop offset="50%" style="stop-color:var(--logo-primary-light, #40a9ff);stop-opacity:1" />
      <stop offset="100%" style="stop-color:var(--logo-secondary, #722ed1);stop-opacity:1" />
    </linearGradient>

    <linearGradient id="cloudGradient" x1="0%" y1="0%" x2="100%" y2="100%">
      <stop offset="0%" style="stop-color:var(--logo-primary, #1890ff);stop-opacity:0.9" />
      <stop offset="50%" style="stop-color:#36cfc9;stop-opacity:0.8" />
      <stop offset="100%" style="stop-color:var(--logo-success, #52c41a);stop-opacity:0.7" />
    </linearGradient>

    <linearGradient id="cartGradient" x1="0%" y1="0%" x2="100%" y2="100%">
      <stop offset="0%" style="stop-color:#ff7875;stop-opacity:1" />
      <stop offset="50%" style="stop-color:#ff4d4f;stop-opacity:1" />
      <stop offset="100%" style="stop-color:#f5222d;stop-opacity:1" />
    </linearGradient>

    <radialGradient id="backgroundGradient" cx="50%" cy="50%" r="70%">
      <stop offset="0%" style="stop-color:var(--logo-primary, #1890ff);stop-opacity:0.05" />
      <stop offset="70%" style="stop-color:var(--logo-secondary, #722ed1);stop-opacity:0.03" />
      <stop offset="100%" style="stop-color:transparent;stop-opacity:0" />
    </radialGradient>

    <linearGradient id="adminAccent" x1="0%" y1="0%" x2="100%" y2="100%">
      <stop offset="0%" style="stop-color:var(--logo-warning, #faad14);stop-opacity:1" />
      <stop offset="100%" style="stop-color:#ffc53d;stop-opacity:1" />
    </linearGradient>

    <!-- Professional Filters -->
    <filter id="glow" x="-50%" y="-50%" width="200%" height="200%">
      <feGaussianBlur stdDeviation="2" result="coloredBlur" />
      <feMerge>
        <feMergeNode in="coloredBlur" />
        <feMergeNode in="SourceGraphic" />
      </feMerge>
    </filter>

    <filter id="shadow" x="-50%" y="-50%" width="200%" height="200%">
      <feDropShadow dx="0" dy="1" stdDeviation="2" flood-color="var(--logo-primary, #1890ff)"
        flood-opacity="0.2" />
      <feDropShadow dx="0" dy="0" stdDeviation="1" flood-color="var(--logo-secondary, #722ed1)"
        flood-opacity="0.1" />
    </filter>

    <filter id="adminGlow" x="-50%" y="-50%" width="200%" height="200%">
      <feGaussianBlur stdDeviation="1.5" result="coloredBlur" />
      <feMerge>
        <feMergeNode in="coloredBlur" />
        <feMergeNode in="SourceGraphic" />
      </feMerge>
    </filter>
  </defs>

  <!-- Background Circle -->
  <circle cx="24" cy="24" r="23" fill="url(#backgroundGradient)" opacity="0.8" />

  <!-- Cloud Infrastructure Layer -->
  <g filter="url(#shadow)">
    <!-- Main Cloud Shape -->
    <ellipse cx="24" cy="16" rx="16" ry="7" fill="url(#cloudGradient)" opacity="0.9" />

    <!-- Cloud Elements -->
    <circle cx="12" cy="14" r="5" fill="url(#cloudGradient)" opacity="0.85" />
    <circle cx="20" cy="12" r="4.5" fill="url(#cloudGradient)" opacity="0.9" />
    <circle cx="28" cy="12" r="5.2" fill="url(#cloudGradient)" opacity="0.9" />
    <circle cx="36" cy="14" r="5" fill="url(#cloudGradient)" opacity="0.85" />

    <!-- Cloud Highlights -->
    <ellipse cx="22" cy="14" rx="4" ry="2" fill="rgba(255,255,255,0.3)" />
    <ellipse cx="30" cy="13" rx="3" ry="1.5" fill="rgba(255,255,255,0.25)" />
  </g>

  <!-- E-commerce Shopping Cart -->
  <g filter="url(#shadow)" transform="translate(16, 24)">
    <!-- Cart Body -->
    <rect x="2" y="4" width="12" height="7" rx="1.5" fill="url(#cartGradient)"
      stroke="rgba(255,255,255,0.3)" stroke-width="0.5" />

    <!-- Cart Handle -->
    <path d="M0 3 L3 3 L4 14 L16 14" stroke="url(#cartGradient)" stroke-width="2" fill="none"
      stroke-linecap="round" stroke-linejoin="round" />

    <!-- Cart Wheels -->
    <circle cx="6" cy="16" r="1.8" fill="url(#cartGradient)" />
    <circle cx="12" cy="16" r="1.8" fill="url(#cartGradient)" />
    <circle cx="6" cy="16" r="1.2" fill="rgba(255,255,255,0.4)" />
    <circle cx="12" cy="16" r="1.2" fill="rgba(255,255,255,0.4)" />

    <!-- Products in Cart -->
    <rect x="4" y="5.5" width="2.5" height="2.5" rx="0.5" fill="rgba(255,255,255,0.9)"
      transform="rotate(-3 5.25 6.75)" />
    <rect x="7.5" y="6" width="2" height="2" rx="0.3" fill="rgba(255,255,255,0.8)"
      transform="rotate(2 8.5 7)" />
    <rect x="10.5" y="6.5" width="1.5" height="1.5" rx="0.2" fill="rgba(255,255,255,0.7)"
      transform="rotate(-1 11.25 7.25)" />
  </g>

  <!-- Admin Dashboard Elements -->
  <g opacity="0.7">
    <!-- Data Visualization Lines -->
    <path d="M8 32 Q16 28 24 32 T40 32" stroke="url(#primaryGradient)" stroke-width="1.5"
      fill="none" stroke-dasharray="2,3" opacity="0.6" />
    <path d="M10 36 Q18 38 26 36 T38 36" stroke="url(#adminAccent)" stroke-width="1" fill="none"
      stroke-dasharray="1,2" opacity="0.5" />

    <!-- Admin Indicators -->
    <circle cx="8" cy="32" r="1.5" fill="var(--logo-success, #52c41a)" opacity="0.8" />
    <circle cx="24" cy="32" r="1.2" fill="var(--logo-warning, #faad14)" opacity="0.8" />
    <circle cx="40" cy="32" r="1.3" fill="var(--logo-error, #ff4d4f)" opacity="0.8" />
  </g>

  <!-- Floating Admin Elements -->
  <g opacity="0.6" filter="url(#adminGlow)">
    <!-- Settings Gear -->
    <g transform="translate(38, 10)">
      <circle cx="0" cy="0" r="3" fill="none" stroke="url(#adminAccent)" stroke-width="0.8" />
      <circle cx="0" cy="0" r="1.5" fill="url(#adminAccent)" opacity="0.7" />
      <rect x="-0.5" y="-4" width="1" height="1.5" rx="0.2" fill="url(#adminAccent)" />
      <rect x="-0.5" y="2.5" width="1" height="1.5" rx="0.2" fill="url(#adminAccent)" />
      <rect x="-4" y="-0.5" width="1.5" height="1" rx="0.2" fill="url(#adminAccent)" />
      <rect x="2.5" y="-0.5" width="1.5" height="1" rx="0.2" fill="url(#adminAccent)" />
      <animateTransform attributeName="transform" type="rotate" values="0 38 10;360 38 10" dur="8s"
        repeatCount="indefinite" />
    </g>

    <!-- User Icon -->
    <g transform="translate(10, 10)">
      <circle cx="0" cy="-1" r="1.5" fill="url(#primaryGradient)" opacity="0.8" />
      <path d="M-2.5 2 Q0 0 2.5 2" stroke="url(#primaryGradient)" stroke-width="1.2" fill="none"
        stroke-linecap="round" opacity="0.8" />
    </g>

    <!-- Analytics Chart -->
    <g transform="translate(6, 36)" opacity="0.5">
      <rect x="0" y="2" width="1" height="3" fill="url(#primaryGradient)" />
      <rect x="2" y="1" width="1" height="4" fill="url(#primaryGradient)" />
      <rect x="4" y="0" width="1" height="5" fill="url(#primaryGradient)" />
      <rect x="6" y="1.5" width="1" height="3.5" fill="url(#primaryGradient)" />
    </g>
  </g>

  <!-- Subtle Pulse Animation -->
  <circle cx="24" cy="24" r="22" fill="none" stroke="url(#primaryGradient)" stroke-width="0.5"
    opacity="0.3">
    <animate attributeName="r" values="22;24;22" dur="4s" repeatCount="indefinite" />
    <animate attributeName="opacity" values="0.3;0.1;0.3" dur="4s" repeatCount="indefinite" />
  </circle>

  <!-- Accessibility and Interaction -->
  <circle cx="24" cy="24" r="24" fill="transparent" stroke="none" style="pointer-events: all;">
    <title>Cloud Kart - Professional E-commerce Admin Panel</title>
  </circle>
</svg>