<svg width="32" height="32" viewBox="0 0 32 32" fill="none" xmlns="http://www.w3.org/2000/svg">
  <defs>
    <linearGradient id="primaryGradient" x1="0%" y1="0%" x2="100%" y2="100%">
      <stop offset="0%" style="stop-color:var(--logo-primary, #1890ff);stop-opacity:1" />
      <stop offset="100%" style="stop-color:var(--logo-secondary, #722ed1);stop-opacity:1" />
    </linearGradient>

    <linearGradient id="cloudGradient" x1="0%" y1="0%" x2="100%" y2="100%">
      <stop offset="0%" style="stop-color:var(--logo-primary, #1890ff);stop-opacity:0.9" />
      <stop offset="100%" style="stop-color:var(--logo-success, #52c41a);stop-opacity:0.8" />
    </linearGradient>

    <linearGradient id="cartGradient" x1="0%" y1="0%" x2="100%" y2="100%">
      <stop offset="0%" style="stop-color:#ff7875;stop-opacity:1" />
      <stop offset="100%" style="stop-color:#f5222d;stop-opacity:1" />
    </linearGradient>

    <filter id="glow">
      <feGaussianBlur stdDeviation="1" result="coloredBlur" />
      <feMerge>
        <feMergeNode in="coloredBlur" />
        <feMergeNode in="SourceGraphic" />
      </feMerge>
    </filter>
  </defs>

  <!-- Background -->
  <circle cx="16" cy="16" r="15" fill="var(--logo-primary, #1890ff)" opacity="0.05" />

  <!-- Cloud -->
  <g transform="translate(0, -2)">
    <ellipse cx="16" cy="12" rx="12" ry="5" fill="url(#cloudGradient)" opacity="0.9" />
    <circle cx="8" cy="10" r="3.5" fill="url(#cloudGradient)" opacity="0.85" />
    <circle cx="16" cy="8.5" r="3.2" fill="url(#cloudGradient)" opacity="0.9" />
    <circle cx="24" cy="10" r="3.5" fill="url(#cloudGradient)" opacity="0.85" />
  </g>

  <!-- Shopping Cart -->
  <g transform="translate(10, 16)">
    <rect x="1" y="2" width="8" height="5" rx="1" fill="url(#cartGradient)" opacity="0.9" />
    <path d="M0 1.5 L2 1.5 L2.5 8 L10 8" stroke="url(#cartGradient)" stroke-width="1.5" fill="none"
      stroke-linecap="round" />
    <circle cx="3.5" cy="9.5" r="1.2" fill="url(#cartGradient)" />
    <circle cx="7.5" cy="9.5" r="1.2" fill="url(#cartGradient)" />

    <!-- Products -->
    <rect x="2.5" y="3" width="1.5" height="1.5" rx="0.3" fill="rgba(255,255,255,0.9)" />
    <rect x="4.5" y="3.5" width="1.2" height="1.2" rx="0.2" fill="rgba(255,255,255,0.8)" />
    <rect x="6.2" y="3.2" width="1" height="1" rx="0.2" fill="rgba(255,255,255,0.7)" />
  </g>

  <!-- Subtle pulse -->
  <circle cx="16" cy="16" r="14" fill="none" stroke="url(#primaryGradient)" stroke-width="0.5"
    opacity="0.3">
    <animate attributeName="r" values="14;16;14" dur="3s" repeatCount="indefinite" />
    <animate attributeName="opacity" values="0.3;0.1;0.3" dur="3s" repeatCount="indefinite" />
  </circle>
</svg>