<svg xmlns="http://www.w3.org/2000/svg" width="48" height="48" id="534">
  <g transform="translate(0 -1004.362)">
    <circle cx="24" cy="1028.362" r="24" fill="#ffa40b" fill-rule="evenodd"></circle>
    <path fill="#ff7712" d="M26.896 47.795a24 24 0 0 0 1.184-.145 24 24 0 0 0 2.34-.525 24 24 0 0 0 2.277-.756 24 24 0 0 0 2.19-.98 24 24 0 0 0 2.08-1.194 24 24 0 0 0 1.951-1.394 24 24 0 0 0 1.803-1.584 24 24 0 0 0 1.634-1.756 24 24 0 0 0 1.454-1.91 24 24 0 0 0 1.254-2.045 24 24 0 0 0 1.042-2.16 24 24 0 0 0 .823-2.254 24 24 0 0 0 .074-.291L28.055 11.855c-.07-.07-.151-.125-.227-.187-.057-.047-.11-.1-.17-.143-.101-.071-.21-.129-.32-.187-.063-.034-.122-.073-.188-.102-.095-.042-.196-.068-.296-.1-.089-.027-.173-.062-.264-.081l-.006-.002a2.867 2.867 0 0 0-.584-.06h-6c-.093 0-.166-.013-.248-.02l-.82-.82c-.008-.009-.021-.01-.03-.018a.591.591 0 0 0-.154-.096c-.027-.012-.05-.029-.078-.037a.488.488 0 0 0-.264-.01.562.562 0 0 0-.406.531v3.813c0 .171.026.336.064.496.012.05.03.096.045.145a2.121 2.121 0 0 0 .418.748c.03.034.055.07.086.103l.022.026.365.365V19.055c.025.352.077.677.145.986l.025.12c.068.285.154.55.256.8l.06.144c.105.236.222.457.354.659.025.039.053.075.08.113.144.206.298.398.467.566l.015.016.31.31c-.113.841-.478 1.334-1.087 1.786-.728.54-1.788.96-2.906 1.437-1.118.478-2.306 1.052-3.219 2.063-.913 1.01-1.5 2.426-1.5 4.468v.375l14.896 14.897z" color="#000" font-family="Sans" font-weight="400" style="line-height:normal;-inkscape-font-specification:Sans;text-indent:0;text-align:start;text-decoration-line:none;text-transform:none;block-progression:tb;marker:none" transform="translate(0 1004.362)"></path>
    <path fill="#fff" d="M10.406 1.992a.562.562 0 0 0-.406.531v3.813c0 .753.395 1.42 1 1.812v2.907c.121 1.732.789 2.943 1.719 3.687-.11.86-.478 1.356-1.094 1.813-.728.54-1.788.96-2.906 1.437-1.118.478-2.306 1.052-3.219 2.063-.913 1.01-1.5 2.426-1.5 4.468v.375l.313.125c2.862 1.243 4.308 1.88 5.03 2.188.362.154.524.24.626.281.05.02.07.015.125.031.013 0 .035.027.062.032h.031c.083.033.257.106.594.25.704.3 2.103.895 4.938 2.125l.219.093.218-.093a494.37 494.37 0 0 1 5.063-2.125c.353-.146.533-.247.625-.282h.031c.054-.01.103-.024.125-.03.043-.015.044-.012.094-.032.1-.041.302-.128.656-.281.708-.307 2.12-.929 4.938-2.157l.312-.125v-.375c0-1.993-.593-3.397-1.5-4.375-.907-.977-2.083-1.502-3.188-1.968-1.104-.467-2.157-.883-2.875-1.438-.704-.544-1.11-1.171-1.125-2.375.972-.803 1.646-1.932 1.688-3.312V6.18c0-1.746-1.322-3.188-3-3.188h-6c-.343 0-.626-.056-.75-.125s-.156-.08-.156-.344c.003-.335-.364-.618-.688-.53zM16 16.578c.809 0 1.465.656 1.465 1.465-.001.4-.164.8-.444 1.072 0 0-.363.178-.207.762L18 26.507l-2 1-1.96-1.01 1.206-6.62c.157-.484-.191-.734-.215-.762a1.41 1.41 0 0 1-.496-1.072c0-.809.656-1.465 1.465-1.465z" color="#000" font-family="Sans" font-weight="400" overflow="visible" style="line-height:normal;-inkscape-font-specification:Sans;text-indent:0;text-align:start;text-decoration-line:none;text-transform:none;block-progression:tb;marker:none" transform="translate(8 1012.362)"></path>
  </g>
</svg>
