<svg xmlns="http://www.w3.org/2000/svg" width="180" height="180" viewBox="0 0 180 180">
  <rect width="180" height="180" fill="#004fac" rx="20" />
  <g transform="translate(30,30) scale(5)">
    <path fill="#8dd1ff"
      d="M22.05528,6.56747,20.535,13.524a1.64625,1.64625,0,0,1-1.63416,1.226H7.034l-1.94754-10H20.42112a1.69255,1.69255,0,0,1,1.28251.55653A1.4198,1.4198,0,0,1,22.05528,6.56747Z"></path>
    <circle cx="9" cy="21" r="1.75" fill="#fff"></circle>
    <circle cx="17" cy="21" r="1.75" fill="#fff"></circle>
    <path fill="#fff"
      d="M10.5 11.75A.7502.7502 0 019.75 11V9a.75.75 0 011.5 0v2A.7502.7502 0 0110.5 11.75zM13.5 12.75a.7502.7502 0 01-.75-.75V8a.75.75 0 011.5 0v4A.7502.7502 0 0113.5 12.75zM16.5 11.75a.7502.7502 0 01-.75-.75V9a.75.75 0 011.5 0v2A.7502.7502 0 0116.5 11.75z"></path>
  </g>
</svg>