<svg xmlns="http://www.w3.org/2000/svg" viewBox="0 0 24 24" id="trolley">
  <g>
    <path fill="#8dd1ff" d="M22.05528,6.56747,20.535,13.524a1.64625,1.64625,0,0,1-1.63416,1.226H7.034l-1.94754-10H20.42112a1.69255,1.69255,0,0,1,1.28251.55653A1.4198,1.4198,0,0,1,22.05528,6.56747Z"></path>
    <circle cx="9" cy="21" r="1.75" fill="#fff"></circle>
    <circle cx="17" cy="21" r="1.75" fill="#fff"></circle>
    <path fill="#fff" d="M10.5 11.75A.7502.7502 0 019.75 11V9a.75.75 0 011.5 0v2A.7502.7502 0 0110.5 11.75zM13.5 12.75a.7502.7502 0 01-.75-.75V8a.75.75 0 011.5 0v4A.7502.7502 0 0113.5 12.75zM16.5 11.75a.7502.7502 0 01-.75-.75V9a.75.75 0 011.5 0v2A.7502.7502 0 0116.5 11.75z"></path>
    <path fill="#004fac" d="M7.31934 15.75a.74956.74956 0 01-.73731-.61816L4.41211 2.95215A.2546.2546 0 004.16016 2.75H2a.75.75 0 010-1.5H4.16016A1.762 1.762 0 015.88672 2.67773L8.05859 14.86816a.75021.75021 0 01-.60644.87012A.77153.77153 0 017.31934 15.75zM9 22.75a2.25 2.25 0 112.25-2.25A2.25309 2.25309 0 019 22.75zm0-3a.75.75 0 10.75.75A.75144.75144 0 009 19.75zM17.5 22.75a2.25 2.25 0 112.25-2.25A2.25309 2.25309 0 0117.5 22.75zm0-3a.75.75 0 10.75.75A.75144.75144 0 0017.5 19.75z"></path>
    <path fill="#004fac" d="M20,19.75H7a2.75,2.75,0,0,1,0-5.5h4a.75.75,0,0,1,0,1.5H7a1.25,1.25,0,0,0,0,2.5H20a.75.75,0,0,1,0,1.5Z"></path>
    <path fill="#004fac" d="M18.36035,15.75h-11.04a.75.75,0,1,1,0-1.5h11.04A1.257,1.257,0,0,0,19.585,13.24121l1.43945-7.18848a.25687.25687,0,0,0-.05566-.21289A.23856.23856,0,0,0,20.78027,5.75H8.54a.75.75,0,0,1,0-1.5H20.78027a1.73965,1.73965,0,0,1,1.34571.63477,1.75874,1.75874,0,0,1,.37011,1.458l-1.44043,7.19434A2.7624,2.7624,0,0,1,18.36035,15.75Z"></path>
  </g>
</svg>
