<svg id="SvgjsSvg1001" width="288" height="288" xmlns="http://www.w3.org/2000/svg" version="1.1" xmlns:xlink="http://www.w3.org/1999/xlink" xmlns:svgjs="http://svgjs.com/svgjs"><defs id="SvgjsDefs1002"></defs><g id="SvgjsG1008"><svg xmlns="http://www.w3.org/2000/svg" enable-background="new 0 0 70 70" viewBox="0 0 70 70" width="288" height="288"><path fill="#ffbf66" d="M36.8,12.88c-0.01,0-0.01,0-0.02,0h-1.36v-7.5c0-1.23-1-2.22-2.23-2.22H30.2c-1.23,0-2.22,0.99-2.22,2.22v7.5
		h-1.36c-2.07,0-3.19,2.43-1.84,4l5.09,5.89c0.96,1.11,2.7,1.11,3.66,0l3.26-3.78V12.88z" class="svgShape colorf9a41a-0 selectable"></path><path fill="#52cc99" d="M62.88,40.93l-3.35,18.55c-0.6,4.23-4.23,7.37-8.5,7.37H18.96c-4.26,0-7.89-3.15-8.49-7.37L7.12,40.93H62.88
				z" class="svgShape color8f90fb-1 selectable"></path><path fill="#494e66" d="M14.54 16.47l6.66 13.85c1.18 2.46.15 5.41-2.3 6.59-2.46 1.18-5.41.15-6.59-2.31L5.65 20.75c-1.18-2.46-.15-5.41 2.31-6.59 1.23-.59 2.57-.63 3.77-.21C12.92 14.37 13.95 15.24 14.54 16.47zM55.46 16.47l-6.66 13.85c-1.18 2.46-.15 5.41 2.3 6.59 2.46 1.18 5.41.15 6.59-2.31l6.66-13.85c1.18-2.46.15-5.41-2.31-6.59-1.23-.59-2.57-.63-3.77-.21C57.08 14.37 56.05 15.24 55.46 16.47z" class="svgShape color495e66-2 selectable"></path><path fill="#318861" d="M67,33.85v2.99c0,2.26-1.84,4.09-4.1,4.09H7.09C4.83,40.93,3,39.1,3,36.84v-2.99c0-2.26,1.83-4.09,4.09-4.09
				H62.9C65.16,29.76,67,31.59,67,33.85z" class="svgShape color5b52c5-3 selectable"></path><path fill="#ededef" d="M25.17 48.42l.93 10.66c.17 2.03-1.42 3.77-3.46 3.77-1.71 0-3.16-1.25-3.42-2.94l-1.64-10.57c-.36-2.32 1.43-4.41 3.78-4.41.99 0 1.9.38 2.58 1.01C24.63 46.56 25.08 47.44 25.17 48.42zM38.85 48.88L38.49 59.5c-.07 1.87-1.6 3.35-3.47 3.35h-.05c-1.87 0-3.4-1.48-3.46-3.35l-.37-10.62c-.07-2.16 1.66-3.95 3.83-3.95h.05C37.2 44.93 38.93 46.72 38.85 48.88zM52.49 48.75c0 .19-.02.39-.05.59l-1.65 10.57c-.26 1.69-1.71 2.94-3.42 2.94-2.03 0-3.63-1.74-3.45-3.77l.92-10.66c.17-1.97 1.83-3.49 3.81-3.49C50.79 44.93 52.49 46.68 52.49 48.75z" class="svgShape colorefefed-4 selectable"></path><path fill="#ffd666" d="M41.78,20.04l-5.08,5.89c-0.96,1.11-2.7,1.11-3.66,0l-5.09-5.89c-1.35-1.57-0.24-4,1.84-4h1.36v-7.5
		c0-1.23,0.99-2.22,2.22-2.22h2.99c1.23,0,2.23,0.99,2.23,2.22v7.5h1.36C42.02,16.04,43.13,18.47,41.78,20.04z" class="svgShape colorfbe063-5 selectable"></path></svg></g></svg>